<?xml version="1.0" encoding="UTF-8"?>
<svg version="1.1" xmlns="http://www.w3.org/2000/svg" width="908" height="887">
<path d="M0 0 C2.37555175 -0.00373996 4.75110228 -0.00834286 7.12665087 -0.01373065 C12.95272891 -0.02465666 18.7787576 -0.02633667 24.60484422 -0.02400894 C31.58948857 -0.02172777 38.57410581 -0.03103704 45.55874231 -0.04056767 C60.03961126 -0.05987584 74.52046602 -0.06553473 89.00134634 -0.06668179 C100.18935177 -0.0676022 111.37735167 -0.07172578 122.5653553 -0.07808304 C125.79023649 -0.07987824 129.01511768 -0.08165787 132.23999888 -0.08343279 C133.04180732 -0.08387489 133.84361577 -0.08431699 134.66972144 -0.08477248 C157.21374543 -0.09707551 179.75776751 -0.10497417 202.30179501 -0.10408592 C203.57589104 -0.10403919 203.57589104 -0.10403919 204.87572639 -0.10399151 C209.1804394 -0.1038253 213.48515241 -0.10362722 217.78986543 -0.10342209 C218.64473485 -0.1033822 219.49960428 -0.10334231 220.38037885 -0.10330121 C222.10913326 -0.10322034 223.83788768 -0.10313674 225.5666421 -0.10305043 C252.44879237 -0.10182558 279.33089213 -0.11682818 306.21302795 -0.14419556 C336.44413516 -0.17495998 366.67520919 -0.19212539 396.90633303 -0.19026911 C400.13404342 -0.19011986 403.3617538 -0.19002244 406.58946419 -0.18996048 C407.78149921 -0.18992552 407.78149921 -0.18992552 408.99761575 -0.18988985 C421.75081586 -0.18982847 434.50397189 -0.20256539 447.25715892 -0.21982501 C460.09018942 -0.23683262 472.92315591 -0.23871541 485.75619148 -0.22560637 C492.69964936 -0.2188948 499.64296271 -0.21837052 506.5864048 -0.23631287 C512.95567287 -0.25211872 519.32465754 -0.24910338 525.69391901 -0.2317446 C527.98529425 -0.22869119 530.27669104 -0.23224364 532.56804084 -0.24346475 C571.78419234 -0.42263262 608.29357664 11.08840076 640.24208069 33.89242554 C640.98031067 34.4186853 641.71854065 34.94494507 642.47914124 35.4871521 C646.73354469 38.60436461 650.50047509 41.92951318 654.1676178 45.71859741 C655.91086314 47.5043472 657.75977527 49.11198354 659.67958069 50.70492554 C690.64685044 77.65354196 708.80885757 121.99479831 711.90691912 162.2191211 C712.24789214 169.1651047 712.21862513 176.10956759 712.18751526 183.0619812 C712.19213809 185.35485811 712.19850018 187.64773204 712.20642424 189.94059992 C712.22295082 196.16799695 712.21494794 202.3951453 712.20247936 208.62254262 C712.19430172 214.67198758 712.2050546 220.72138313 712.21506882 226.77081822 C712.23602116 239.88971094 712.23435068 253.00852525 712.22275317 266.12742524 C712.21265443 277.60861472 712.21008107 289.08977561 712.21484375 300.57096863 C712.21530206 301.7174032 712.21530206 301.7174032 712.21576963 302.88699808 C712.21701517 305.99021252 712.21828879 309.09342695 712.21960869 312.19664137 C712.23181954 341.25283515 712.22079085 370.30897928 712.1992211 399.36516539 C712.18024147 425.1280222 712.1819401 450.89079989 712.20106506 476.65365601 C712.22252619 505.65981619 712.23095324 534.66593257 712.21861601 563.67209959 C712.21733332 566.76936053 712.21608194 569.86662149 712.21484375 572.96388245 C712.21452744 573.7263968 712.21421113 574.48891116 712.21388524 575.27453201 C712.20935289 586.74294453 712.21462354 598.21132518 712.22476196 609.67973328 C712.23624354 622.731837 712.2332454 635.78385071 712.21163899 648.83594334 C712.20099081 655.48604713 712.19692065 662.13602631 712.2102356 668.78613853 C712.22226985 674.88924272 712.21541737 680.99204082 712.19432539 687.09511775 C712.18990563 689.28727282 712.19201941 691.47945447 712.20182854 693.67159206 C712.39149304 739.63086974 697.02784357 782.45484137 665.56239319 816.23226929 C663.99496631 817.92652117 662.54468862 819.64441614 661.11708069 821.45492554 C634.00741167 852.73531286 589.04810707 870.49552067 548.61849487 873.49448931 C541.44322842 873.83488065 534.26962341 873.80649735 527.08815002 873.77536011 C524.72087647 873.77998313 522.3536058 873.78634534 519.986341 873.79426908 C513.55790817 873.8107931 507.12971631 873.80279398 500.70128322 873.79032421 C494.45622606 873.78016214 488.21119055 873.7929 481.96613993 873.80291367 C468.42326056 873.82386454 454.88045715 873.82219612 441.33757074 873.81059802 C429.48531332 873.80049877 417.6330836 873.79792615 405.78082275 873.8026886 C404.99179266 873.80299414 404.20276256 873.80329968 403.38982246 873.80361448 C400.18614552 873.80486002 396.9824686 873.80613364 393.77879169 873.80745353 C363.78271592 873.81966405 333.78668826 873.80863626 303.79061993 873.78706595 C277.19515009 873.76808636 250.59975689 873.76978499 224.00428772 873.78890991 C194.0598192 873.81037162 164.11539313 873.81879776 134.17091799 873.80646086 C130.97339154 873.80517817 127.77586509 873.80392679 124.57833862 873.8026886 C123.79114148 873.80237229 123.00394434 873.80205598 122.19289274 873.80173009 C110.35390489 873.79719798 98.51494792 873.80246794 86.67596436 873.81260681 C73.20194186 873.82408905 59.72800657 873.82108884 46.25399482 873.79948384 C39.38906616 873.78883654 32.52430151 873.78476397 25.65937233 873.79808044 C19.35888077 873.81011653 13.05868566 873.80325926 6.75822049 873.78217024 C4.4954184 873.77775124 2.23259056 873.77986246 -0.03019458 873.78967339 C-46.40655757 873.97511431 -88.73448044 859.43042613 -123.32041931 828.26742554 C-124.42836853 827.31416382 -124.42836853 827.31416382 -125.55870056 826.34164429 C-126.32569275 825.6777771 -127.09268494 825.01390991 -127.88291931 824.32992554 C-128.56483337 823.7434021 -129.24674744 823.15687866 -129.94932556 822.55258179 C-157.88603539 795.62840509 -174.45360007 759.18862307 -180.32041931 721.26742554 C-180.4902746 720.25868126 -180.66012988 719.24993698 -180.8351323 718.21062469 C-181.3899296 713.70261975 -181.46240183 709.32298266 -181.45464039 704.78707886 C-181.45699262 703.8471569 -181.45934485 702.90723494 -181.46176836 701.93883049 C-181.4684352 698.78337656 -181.46800083 695.62796403 -181.46759033 692.47250366 C-181.47089042 690.18946457 -181.4746163 687.90642606 -181.47873181 685.62338829 C-181.48874385 679.34433195 -181.49246735 673.06528517 -181.49512112 666.78622198 C-181.4986256 660.71082262 -181.5067733 654.63543093 -181.51466506 648.56003599 C-181.53549437 632.28172405 -181.54597811 616.00341031 -181.55479466 599.72508816 C-181.5590046 592.0182027 -181.56422622 584.31131802 -181.56947919 576.60443322 C-181.58737089 550.20428784 -181.60236397 523.80414223 -181.60979939 497.4039917 C-181.61027414 495.74696132 -181.61075003 494.08993093 -181.61122705 492.43290055 C-181.61146342 491.61118777 -181.6116998 490.78947499 -181.61194334 489.94286182 C-181.61314449 485.77989087 -181.61435996 481.61691992 -181.61558533 477.45394897 C-181.61594555 476.21473166 -181.61594555 476.21473166 -181.61631305 474.95047966 C-181.62419836 448.19099862 -181.64761353 421.43156202 -181.68014127 394.67210037 C-181.71449595 366.35776253 -181.73415588 338.04345066 -181.73744363 309.72909164 C-181.73786114 306.61613718 -181.73834069 303.50318272 -181.73886681 300.39022827 C-181.73899 299.62377284 -181.73911319 298.8573174 -181.73924011 298.06763604 C-181.74156547 285.76991753 -181.75718849 273.47225087 -181.77770865 261.17455079 C-181.79803901 248.7933381 -181.80341011 236.41218721 -181.79393802 224.03096092 C-181.78920417 217.33246483 -181.79121309 210.6341562 -181.81069946 203.93567276 C-181.82842576 197.78878231 -181.82725698 191.6421799 -181.81180217 185.49528599 C-181.80944038 183.28581042 -181.81367425 181.0763144 -181.82563082 178.86686993 C-182.02423774 139.7020256 -170.45796272 103.54832294 -147.69541931 71.70492554 C-147.16924011 70.96693726 -146.64306091 70.22894897 -146.10093689 69.46859741 C-143.00060637 65.23644613 -139.70943482 61.46793082 -135.91441345 57.84384155 C-134.28441688 56.23182013 -132.83241809 54.54210895 -131.38291931 52.76742554 C-128.05436839 48.82410268 -124.28957077 45.55150993 -120.32041931 42.26742554 C-119.53409119 41.61644897 -118.74776306 40.96547241 -117.93760681 40.29476929 C-96.30368283 22.69601294 -71.8319839 10.59184219 -44.69541931 4.07992554 C-43.72971008 3.84753174 -43.72971008 3.84753174 -42.74449158 3.61044312 C-40.60975559 3.12275377 -38.46833004 2.6935876 -36.32041931 2.26742554 C-35.50877443 2.09732542 -34.69712955 1.92722531 -33.86088938 1.75197065 C-22.63113836 -0.30322494 -11.37661609 -0.01699783 0 0 Z " fill="#024DFC" transform="translate(189.32041931152344,6.732574462890625)"/>
<path d="M0 0 C0.93070313 0.70640625 1.86140625 1.4128125 2.8203125 2.140625 C20.56635189 16.10981053 34.64130258 33.07810709 45.01806641 53.11328125 C45.91651263 54.83958469 46.8529031 56.54600301 47.79296875 58.25 C71.74457183 104.72816798 70.43251518 163.34891713 59 213 C58.73832031 214.17046875 58.47664063 215.3409375 58.20703125 216.546875 C54.80788756 230.39878449 50.38875884 246.22248231 44 259 C44.66644531 259.18691406 45.33289063 259.37382812 46.01953125 259.56640625 C50.2870683 261.61907479 53.29517362 264.67455388 56.6875 267.9375 C57.40010986 268.61699707 58.11271973 269.29649414 58.84692383 269.99658203 C93.84099861 303.63755788 116.70309756 347.96608591 124 396 C124.30744141 397.86011719 124.30744141 397.86011719 124.62109375 399.7578125 C128.18221602 423.78798119 127.27713574 449.35501194 122 473 C121.85578613 473.69899414 121.71157227 474.39798828 121.56298828 475.11816406 C114.72932249 508.23452265 100.41184367 539.15820981 80 566 C79.46246094 566.71929688 78.92492187 567.43859375 78.37109375 568.1796875 C65.5719344 585.01906342 50.9926105 601.31760013 34 614 C33.40171387 614.44762695 32.80342773 614.89525391 32.18701172 615.35644531 C12.02308197 630.32338302 -10.13435569 643.0123811 -34 651 C-34.72622559 651.24991699 -35.45245117 651.49983398 -36.20068359 651.75732422 C-70.44575575 663.32392923 -107.72520743 665.29905413 -143 658 C-143.92248535 657.81276367 -144.8449707 657.62552734 -145.79541016 657.43261719 C-173.58656701 651.66417129 -200.31854153 640.72796648 -224 625 C-224.66902344 624.55720703 -225.33804688 624.11441406 -226.02734375 623.65820312 C-236.70367621 616.51779362 -246.50302816 608.63478413 -256 600 C-256.60956543 599.44683105 -257.21913086 598.89366211 -257.84716797 598.32373047 C-262.99000792 593.64307608 -268.11653978 588.95339044 -273 584 C-271.58261511 580.74792908 -269.87473588 578.68638933 -267.3125 576.25 C-264.01947148 573.03959227 -260.96119551 569.72829366 -257.9609375 566.24609375 C-255.61901523 563.56361306 -253.22137985 560.93466388 -250.8125 558.3125 C-250.34900146 557.80783203 -249.88550293 557.30316406 -249.40795898 556.78320312 C-246.90103159 554.05752191 -244.38782335 551.33772492 -241.87109375 548.62109375 C-237.09467814 543.46351779 -232.33406217 538.30524637 -227.734375 532.98828125 C-224.20832935 528.94603522 -220.59635722 524.97964245 -217 521 C-213.74264489 523.73913952 -210.53917649 526.48487908 -207.4609375 529.42578125 C-194.805825 541.47079879 -180.49392392 550.9835956 -165 559 C-164.38979004 559.31807617 -163.77958008 559.63615234 -163.15087891 559.96386719 C-130.72918625 576.62295974 -92.42602977 580.14369024 -57.53930664 569.59301758 C-49.21373962 566.91776393 -41.63008015 563.23120711 -34 559 C-32.92105469 558.4225 -31.84210938 557.845 -30.73046875 557.25 C-23.48203064 553.230327 -17.23817791 548.43770376 -11 543 C-10.16726563 542.28972656 -9.33453125 541.57945312 -8.4765625 540.84765625 C1.28389439 532.33419779 10.02320039 522.94338456 17 512 C17.70769531 510.91460938 18.41539062 509.82921875 19.14453125 508.7109375 C28.51579387 493.98208098 34.74806376 477.88826227 39 461 C39.47953125 459.18435547 39.47953125 459.18435547 39.96875 457.33203125 C44.03627495 439.46128504 43.54778507 419.72470077 39 402 C38.69835937 400.72125 38.39671875 399.4425 38.0859375 398.125 C36.08539368 390.05776637 33.49557149 382.53469029 30 375 C29.7323584 374.40638672 29.4647168 373.81277344 29.18896484 373.20117188 C22.7797491 359.08714511 14.20444466 346.6427566 4 335 C0.40764291 336.19745236 -0.25390793 337.32881414 -2.5 340.3125 C-20.74874017 363.72283639 -43.43096958 383.01336734 -69 398 C-69.59232422 398.35223633 -70.18464844 398.70447266 -70.79492188 399.06738281 C-77.36371099 402.97042524 -83.73557824 406.53748415 -91 409 C-92.39881482 409.61771121 -93.79173714 410.24887439 -95.1796875 410.890625 C-102.87948856 414.33920874 -110.89575039 416.69799632 -119 419 C-119.74556152 419.2175293 -120.49112305 419.43505859 -121.25927734 419.65917969 C-150.97377845 427.99381567 -186.12243537 424.62647965 -214 412 C-215.68535377 411.38987193 -217.3726921 410.78518125 -219.0625 410.1875 C-230.01798779 405.77613886 -239.70657607 398.27934342 -248 390 C-248.76957031 389.24203125 -249.53914062 388.4840625 -250.33203125 387.703125 C-259.47321538 378.17262297 -265.5958941 366.38752048 -270 354 C-270.26039063 353.28432861 -270.52078125 352.56865723 -270.7890625 351.83129883 C-273.01488584 345.20855136 -273.47047607 339.1444857 -273.375 332.1875 C-273.36194824 330.60038208 -273.36194824 330.60038208 -273.34863281 328.98120117 C-273.20312083 321.22195346 -272.34167083 314.42207841 -270 307 C-269.74476563 305.98808594 -269.48953125 304.97617187 -269.2265625 303.93359375 C-260.27828511 270.48017138 -232.57324995 243.5267493 -203.60546875 226.3515625 C-195.88873064 221.90212228 -188.16264317 218.06885868 -179.75 215.0625 C-176.90498688 214.04420295 -174.06311236 213.02371171 -171.234375 211.9609375 C-169.88085938 211.45433594 -169.88085938 211.45433594 -168.5 210.9375 C-167.30890625 210.48697266 -167.30890625 210.48697266 -166.09375 210.02734375 C-157.0949715 207.03911301 -148.3656274 205.35512429 -138.9375 204.375 C-136.71709652 204.13605561 -134.49702171 203.89403025 -132.27734375 203.6484375 C-130.82702759 203.49640869 -130.82702759 203.49640869 -129.34741211 203.34130859 C-126.98481099 203.12318281 -126.98481099 203.12318281 -125 202 C-111.12980969 201.01851339 -97.04051139 201.82697873 -83.25 203.375 C-82.12730713 203.50100586 -81.00461426 203.62701172 -79.84790039 203.75683594 C-74.376175 204.42492207 -69.26966874 205.33064867 -64 207 C-62.54117987 207.39080381 -61.08004209 207.77301741 -59.6171875 208.1484375 C-34.03343889 214.76219709 -34.03343889 214.76219709 -28 218 C-27.6596875 216.2984375 -27.6596875 216.2984375 -27.3125 214.5625 C-26.28712268 209.90435734 -24.94149054 205.37444355 -23.5625 200.8125 C-19.63184212 187.7160726 -16.87097793 174.71172069 -16.796875 160.99609375 C-16.79117493 160.15514664 -16.78547485 159.31419952 -16.77960205 158.44776917 C-16.77020863 156.67539708 -16.76364077 154.90300798 -16.75976562 153.13061523 C-16.75011391 150.46891371 -16.71905854 147.8080036 -16.6875 145.14648438 C-16.60372537 131.83764386 -17.6472454 119.37141752 -23 107 C-23.40025391 106.0713916 -23.40025391 106.0713916 -23.80859375 105.12402344 C-33.83100516 82.50431842 -49.8509982 66.18774585 -73.04589844 57.10424805 C-102.8937722 45.95435091 -134.47414648 47.942063 -163.6652832 60.71923828 C-186.16760576 71.17060393 -208.21567234 87.5430275 -225.41015625 105.41015625 C-227.11255053 107.11255053 -228.90590992 108.64024534 -230.75 110.1875 C-283.02025864 155.54847158 -318.1035569 232.39370473 -332.50537109 298.77587891 C-333.03414011 301.15351253 -333.60167735 303.5196371 -334.17578125 305.88671875 C-336.78183619 316.75341855 -338.90811769 327.66866295 -340.75 338.6875 C-341.06602173 340.56634888 -341.06602173 340.56634888 -341.38842773 342.4831543 C-342.43791352 348.91722015 -343.30042851 355.29981222 -343.76269531 361.80395508 C-344 364 -344 364 -345 367 C-353.72551036 428.13334659 -351.09525706 498.3679698 -336.79443359 558.58007812 C-335.95966313 562.17364441 -335.20115557 565.77724345 -334.45703125 569.390625 C-331.52636261 583.47171798 -328.33946084 597.22352023 -323.6652832 610.85644531 C-321.61275108 616.85479796 -320.07137181 622.74849024 -319 629 C-319.73863281 629.30292969 -320.47726562 629.60585938 -321.23828125 629.91796875 C-326.34720571 632.02775331 -331.42432772 634.17087128 -336.4375 636.5 C-340.16419983 638.21284722 -343.91107256 639.76038261 -347.75 641.203125 C-353.05663778 643.228565 -358.31920695 645.34106372 -363.56640625 647.515625 C-364.66770119 647.97183228 -364.66770119 647.97183228 -365.79124451 648.43725586 C-368.82379125 649.69511189 -371.85530107 650.95543905 -374.88598633 652.21777344 C-377.13263841 653.15279078 -379.38068075 654.08439857 -381.62890625 655.015625 C-382.65232872 655.44370453 -382.65232872 655.44370453 -383.69642639 655.88043213 C-386.76203001 657.14844418 -389.74218417 658.33655265 -393 659 C-393.30292969 657.8140625 -393.60585938 656.628125 -393.91796875 655.40625 C-394.34093541 653.7707789 -394.76412487 652.13536541 -395.1875 650.5 C-395.38408203 649.72785156 -395.58066406 648.95570313 -395.78320312 648.16015625 C-396.97985437 643.55765145 -398.2969751 639.01472372 -399.74656677 634.48492432 C-402.78200602 624.99882395 -405.26078713 615.42251977 -407.625 605.75 C-408.00996238 604.18999199 -408.395378 602.63009576 -408.78125 601.0703125 C-409.52277068 598.07150048 -410.2602693 595.07174248 -410.99511719 592.07128906 C-411.86450863 588.53040105 -412.77088708 584.9997366 -413.6796875 581.46875 C-414.90159912 576.5894785 -415.79146111 571.72726705 -416.5 566.75 C-417.33787258 560.98833302 -418.32327366 555.27881632 -419.43359375 549.5625 C-421.01541525 541.30253623 -422.19054843 533.00962856 -423.25268555 524.66845703 C-423.55712001 522.29199702 -423.87479131 519.91756968 -424.19335938 517.54296875 C-427.45777114 492.62374645 -428.33479947 467.76109853 -428.26074219 442.6640625 C-428.24934847 438.77880638 -428.25615231 434.89382421 -428.26759911 431.00857735 C-428.33766801 403.15240143 -426.58437326 375.7517446 -422.875 348.125 C-422.72415955 346.99001068 -422.57331909 345.85502136 -422.41790771 344.68563843 C-416.7840402 302.6654299 -407.88732417 259.76672971 -391.93530273 220.34423828 C-390.69475922 217.23494598 -389.57034064 214.0874362 -388.4375 210.9375 C-370.74012643 163.13706922 -344.58260225 118.0624814 -312.34179688 78.64599609 C-311.10833515 77.13289585 -309.88938111 75.60799948 -308.671875 74.08203125 C-299.77877706 62.99764838 -289.95559443 52.85646647 -279.95489502 42.77966309 C-278.95998785 41.77671214 -277.96656535 40.77228577 -276.97479248 39.76623535 C-270.33294425 33.03897865 -263.40947737 26.8742983 -256 21 C-254.75656574 19.97574269 -253.51533896 18.9487935 -252.27734375 17.91796875 C-237.6137159 5.86384176 -221.84353818 -4.26708609 -205 -13 C-204.19224121 -13.42023438 -203.38448242 -13.84046875 -202.55224609 -14.2734375 C-138.4219891 -47.21834477 -58.09397149 -44.7436349 0 0 Z " fill="#010422" transform="translate(612,133)"/>
<path d="M0 0 C0.6904541 -0.0014502 1.3809082 -0.00290039 2.09228516 -0.00439453 C13.87472345 -0.00167404 24.97911703 1.30687766 36.375 4.375 C28.23720783 22.37028733 4.06608345 36.45472073 -13.55078125 43.59814453 C-32.42075107 50.66549905 -55.81055082 52.68575407 -74.9140625 45.0625 C-77.22118049 43.91868939 -79.43906498 42.73382447 -81.625 41.375 C-80.27452417 31.34546615 -71.57115066 23.71086467 -64.01953125 17.7265625 C-45.14603808 4.14121371 -22.82868916 -0.04940087 0 0 Z " fill="#034CF8" transform="translate(502.625,420.625)"/>
<path d="M0 0 C0 0.33 0 0.66 0 1 C3.82718371 1.87505177 7.47350909 2.18632495 11.39453125 2.31640625 C12.59658203 2.35830078 13.79863281 2.40019531 15.03710938 2.44335938 C16.90592773 2.50233398 16.90592773 2.50233398 18.8125 2.5625 C20.71032227 2.62727539 20.71032227 2.62727539 22.64648438 2.69335938 C25.76421889 2.7992447 28.88203035 2.90132405 32 3 C32 3.33 32 3.66 32 4 C15.36552986 4.33774695 -0.63716776 4.20018139 -17 1 C-17 0.67 -17 0.34 -17 0 C-11.23073111 -1.40333568 -5.81856895 -0.67296616 0 0 Z " fill="#031C65" transform="translate(491,791)"/>
<path d="M0 0 C0.66 0.33 1.32 0.66 2 1 C-5.56756757 8.78378378 -5.56756757 8.78378378 -10 11 C-10.66 10.34 -11.32 9.68 -12 9 C-8.04 6.03 -4.08 3.06 0 0 Z " fill="#000B44" transform="translate(519,445)"/>
<path d="M0 0 C1.47893653 4.98168095 0.96414475 9.73142413 -1.0625 14.5 C-1.371875 14.995 -1.68125 15.49 -2 16 C-3.13314263 11.89517207 -2.78328091 9.24049263 -1.5625 5.1875 C-1.27503906 4.21167969 -0.98757812 3.23585938 -0.69140625 2.23046875 C-0.46324219 1.49441406 -0.23507813 0.75835937 0 0 Z " fill="#011154" transform="translate(207,393)"/>
<path d="M0 0 C0.90550946 3.01150495 1.06723758 5.43770987 0.75 8.5625 C0.68296875 9.32691406 0.6159375 10.09132813 0.546875 10.87890625 C-0.09694852 13.37602176 -1.05228884 14.36120002 -3 16 C-2.52013969 10.43109483 -1.70084819 5.32932432 0 0 Z " fill="#011356" transform="translate(202,413)"/>
<path d="M0 0 C0.66 0.66 1.32 1.32 2 2 C-0.64 4.31 -3.28 6.62 -6 9 C-6.66 8.67 -7.32 8.34 -8 8 C-5.36 5.36 -2.72 2.72 0 0 Z " fill="#00093D" transform="translate(375,385)"/>
<path d="M0 0 C0.66 0.66 1.32 1.32 2 2 C-0.3125 4.5 -0.3125 4.5 -3 7 C-3.99 7 -4.98 7 -6 7 C-4.02 4.69 -2.04 2.38 0 0 Z " fill="#010736" transform="translate(312,197)"/>
<path d="M0 0 C0.33 0 0.66 0 1 0 C1.83705954 3.99928449 2.24068023 7.07117928 1 11 C0.02615879 12.35255724 -0.97103053 13.68889374 -2 15 C-1.03644647 4.44191344 -1.03644647 4.44191344 0 0 Z " fill="#011860" transform="translate(654,578)"/>
<path d="M0 0 C-4.1196377 1.29243536 -7.66831683 2.26252625 -12 2 C-10.68 1.67 -9.36 1.34 -8 1 C-8 0.34 -8 -0.32 -8 -1 C-4.59745511 -2.2151946 -3.06748874 -1.86240388 0 0 Z " fill="#021044" transform="translate(564,788)"/>
<path d="M0 0 C2.97 0.33 5.94 0.66 9 1 C8.67 1.66 8.34 2.32 8 3 C5.36 2.67 2.72 2.34 0 2 C0 1.34 0 0.68 0 0 Z " fill="#010B33" transform="translate(465,788)"/>
<path d="M0 0 C0.66 0 1.32 0 2 0 C0.7508258 3.45925163 -0.67527795 6.14693203 -3 9 C-2.5020163 5.26512223 -2.12508244 3.18762365 0 0 Z " fill="#000733" transform="translate(709,668)"/>
<path d="M0 0 C0.33 0.66 0.66 1.32 1 2 C-0.4726862 5.27263601 -1.42695432 6.72014048 -4.6875 8.3125 C-5.450625 8.539375 -6.21375 8.76625 -7 9 C-6.02180976 7.68677212 -5.0424189 6.37443848 -4.0625 5.0625 C-3.51722656 4.33160156 -2.97195313 3.60070312 -2.41015625 2.84765625 C-1 1 -1 1 0 0 Z " fill="#0241DA" transform="translate(609,473)"/>
<path d="M0 0 C0.33 0 0.66 0 1 0 C1.25 3.25 1.25 3.25 1 7 C-0.32 8.32 -1.64 9.64 -3 11 C-2.01 7.37 -1.02 3.74 0 0 Z " fill="#033BCC" transform="translate(286,404)"/>
<path d="M0 0 C0.66 0.33 1.32 0.66 2 1 C0.02 3.31 -1.96 5.62 -4 8 C-4.66 7.67 -5.32 7.34 -6 7 C-4.02 4.69 -2.04 2.38 0 0 Z " fill="#0242DD" transform="translate(432,444)"/>
<path d="M0 0 C1.65 0 3.3 0 5 0 C3.35 1.65 1.7 3.3 0 5 C-0.66 4.67 -1.32 4.34 -2 4 C-2 3.34 -2 2.68 -2 2 C-1.34 2 -0.68 2 0 2 C0 1.34 0 0.68 0 0 Z " fill="#074BE8" transform="translate(385,372)"/>
</svg>
