<?xml version="1.0" encoding="UTF-8"?>
<svg version="1.1" xmlns="http://www.w3.org/2000/svg" width="485" height="484" viewBox="0 0 485 484">
<path d="M0 0 C17.58621211 -0.09379749 35.1723452 -0.16415154 52.75875092 -0.20724869 C60.92600408 -0.22779896 69.09310105 -0.25577373 77.26025391 -0.30175781 C84.38586018 -0.34185818 91.51135323 -0.36748744 98.63706923 -0.37635398 C102.40368147 -0.38152987 106.16997005 -0.39353375 109.93647766 -0.42292023 C140.15250899 -0.64953948 140.15250899 -0.64953948 153 4 C153.88601395 4.31973282 154.77202789 4.63946564 155.68489075 4.96888733 C157.74832042 5.75996461 159.70732249 6.64561491 161.6875 7.625 C162.3882666 7.96490967 163.0890332 8.30481934 163.81103516 8.6550293 C184.96482332 19.3329995 201.85747955 38.72275023 209.72460938 61.05712891 C212.78193069 70.80998392 214.19859305 80.49520173 214.1875 90.6875 C214.18669434 91.46770508 214.18588867 92.24791016 214.18505859 93.05175781 C214.09123573 102.02563899 212.98836344 110.51204334 210 119 C210.72960937 119.2784375 211.45921875 119.556875 212.2109375 119.84375 C231.9065858 128.00889271 245.43863231 146.07979301 254 165 C255.62176729 168.94823107 256.92516969 172.8703888 258 177 C258.33644531 178.28777344 258.33644531 178.28777344 258.6796875 179.6015625 C263.9672413 204.73555109 258.85140916 231.49386472 245 253 C232.07840974 271.98233616 213.48331589 285.51927907 191 291 C179.39962234 292.84983125 167.93070306 293.28671729 156.20507812 293.24291992 C154.49978055 293.24399634 152.79448335 293.24594032 151.08918762 293.24867249 C146.51792168 293.25346075 141.94675551 293.24594594 137.37550163 293.23571944 C132.57540904 293.22685813 127.77531883 293.22869781 122.97521973 293.2290802 C114.93642529 293.22814842 106.89766899 293.21952287 98.85888672 293.20581055 C89.55806863 293.19000445 80.25729197 293.18481563 70.95646143 293.1855461 C61.03678042 293.18621995 51.11711539 293.17929787 41.19743919 293.1700995 C38.33996393 293.16796592 35.48249124 293.16725807 32.62501526 293.16686058 C28.1531846 293.16586015 23.68138903 293.15978837 19.20956993 293.14969444 C17.56516929 293.14676242 15.92076462 293.14554548 14.27636147 293.14612198 C12.04207256 293.14660912 9.80788346 293.14099275 7.5736084 293.13371277 C6.32084862 293.13203692 5.06808884 293.13036108 3.77736664 293.12863445 C1 293 1 293 0 292 C-0.09611419 290.3424238 -0.12187755 288.68073014 -0.12025452 287.02037048 C-0.12231651 285.40279091 -0.12231651 285.40279091 -0.12442017 283.75253296 C-0.12082489 282.5592337 -0.11722961 281.36593445 -0.11352539 280.13647461 C-0.11367142 278.88787155 -0.11381744 277.63926849 -0.1139679 276.35282898 C-0.11338891 272.91909006 -0.10835955 269.48541062 -0.10139394 266.05168223 C-0.09515998 262.46687541 -0.09455657 258.88206787 -0.09336853 255.29725647 C-0.09025534 248.50449955 -0.08204212 241.71175865 -0.07201904 234.91900879 C-0.06085753 227.18757506 -0.05534736 219.45614058 -0.05032361 211.72470081 C-0.03985949 195.81645792 -0.02226029 179.90823102 0 164 C0.66223383 163.99761165 1.32446766 163.99522329 2.00676918 163.99276257 C18.17644445 163.93343251 34.34595439 163.85776873 50.51546669 163.76428509 C58.33516714 163.71946295 66.15482342 163.68001763 73.97460938 163.65356445 C80.79630548 163.63047366 87.61786022 163.59695382 94.43944395 163.55129844 C98.04602116 163.52751432 101.65245967 163.50868922 105.25911331 163.50238609 C109.30136002 163.49512514 113.34312871 163.46456335 117.38525391 163.43237305 C119.14717323 163.43452568 119.14717323 163.43452568 120.94468689 163.4367218 C140.17661934 163.22171252 159.21098228 156.9006773 173.48828125 143.69921875 C176.61329805 140.29171456 179.17263886 136.76922689 181.60913086 132.84790039 C182.28159096 131.76708946 182.28159096 131.76708946 182.96763611 130.66444397 C183.30831619 130.11517746 183.64899628 129.56591095 184 129 C183.05778878 129.00092179 182.11557756 129.00184359 181.14481449 129.00279331 C158.25357895 129.02496041 135.3623448 129.04141031 112.47110081 129.05181217 C101.40122154 129.05697571 90.33134934 129.0640195 79.26147461 129.07543945 C69.61668946 129.08538454 59.97190943 129.09185301 50.32711929 129.09408849 C45.21693439 129.0953959 40.10676415 129.09848364 34.99658394 129.10573006 C30.19257441 129.1124875 25.38858567 129.11461753 20.58457184 129.11310768 C18.81601537 129.11338413 17.04745825 129.11539088 15.27890587 129.11920547 C12.87512527 129.12413843 10.47142443 129.12299978 8.06764221 129.12025452 C7.00394617 129.12462378 7.00394617 129.12462378 5.91876131 129.12908131 C1.11412121 129.11412121 1.11412121 129.11412121 0 128 C-0.09611419 126.3424238 -0.12187755 124.68073014 -0.12025452 123.02037048 C-0.12231651 121.40279091 -0.12231651 121.40279091 -0.12442017 119.75253296 C-0.12082489 118.5592337 -0.11722961 117.36593445 -0.11352539 116.13647461 C-0.11367142 114.88787155 -0.11381744 113.63926849 -0.1139679 112.35282898 C-0.11338891 108.91909006 -0.10835955 105.48541062 -0.10139394 102.05168223 C-0.09515998 98.46687541 -0.09455657 94.88206787 -0.09336853 91.29725647 C-0.09025534 84.50449955 -0.08204212 77.71175865 -0.07201904 70.91900879 C-0.06085753 63.18757506 -0.05534736 55.45614058 -0.05032361 47.72470081 C-0.03985949 31.81645792 -0.02226029 15.90823102 0 0 Z M19 19 C19 49.03 19 79.06 19 110 C35.97308594 109.96519531 35.97308594 109.96519531 53.2890625 109.9296875 C60.47135509 109.91946457 67.65364237 109.90975339 74.8359375 109.90234375 C86.22788299 109.89049652 97.61979881 109.87660175 109.01171875 109.84912109 C117.30998648 109.82911287 125.60823002 109.81626601 133.9065212 109.81182301 C138.2955871 109.80922816 142.68458385 109.80318018 147.07362747 109.78853989 C151.21533139 109.7748382 155.35693851 109.77080245 159.49866295 109.77378464 C161.00859162 109.77324005 162.51852396 109.76933826 164.02843285 109.76158905 C173.54218822 109.715209 182.61733925 110.38378627 192 112 C197.80915723 98.1509102 196.02883037 79.92063909 190.93359375 66.109375 C189.73250203 63.33457564 188.40887639 60.67493517 187 58 C186.51917969 57.03449219 186.03835938 56.06898438 185.54296875 55.07421875 C178.22971206 41.35518977 167.70779077 32.81265655 154 26 C153.18660156 25.58105469 152.37320313 25.16210938 151.53515625 24.73046875 C141.85027188 20.05440342 131.8312008 18.54703184 121.17285156 18.65942383 C120.0591922 18.65898575 118.94553284 18.65854767 117.79812622 18.65809631 C114.16210639 18.66016581 110.52656305 18.68340974 106.890625 18.70703125 C104.35187024 18.71263374 101.81311221 18.71690075 99.27435303 18.71989441 C93.30354512 18.73013037 87.33288697 18.75371016 81.36215568 18.78394288 C72.68998984 18.82688752 64.01776565 18.84241217 55.34552002 18.86136627 C43.23020811 18.89035505 31.11533387 18.94787858 19 19 Z M202 136 C201.50693359 136.89138672 201.50693359 136.89138672 201.00390625 137.80078125 C188.92114695 158.85556237 171.64645996 171.45118001 149.0234375 178.9921875 C134.88671543 182.77720243 120.53068506 182.34551144 106.01171875 182.4140625 C103.49680462 182.43279754 100.98189662 182.45237265 98.46699524 182.4727478 C92.55653273 182.5186259 86.64606499 182.55612144 80.73551923 182.58942068 C72.14881048 182.6384061 63.56223111 182.70465575 54.97562408 182.76873779 C42.98378986 182.85665593 30.99197178 182.92663099 19 183 C19 213.03 19 243.06 19 274 C46.33592456 274.08748733 46.33592456 274.08748733 73.671875 274.14648438 C84.82881841 274.16424463 95.98569356 274.18505664 107.14257812 274.22631836 C115.27020034 274.25636239 123.39776687 274.27560837 131.52544308 274.28226548 C135.82295064 274.28615251 140.12029896 274.29518981 144.41775513 274.31719017 C148.47577908 274.33779335 152.53358062 274.34378656 156.59165192 274.33932304 C158.06849635 274.34013773 159.54534947 274.34595984 161.02214813 274.35761642 C179.66856851 274.49737818 196.74348189 271.3022777 212 260 C213.010625 259.2575 214.02125 258.515 215.0625 257.75 C215.701875 257.1725 216.34125 256.595 217 256 C217 255.34 217 254.68 217 254 C217.57234375 253.76539063 218.1446875 253.53078125 218.734375 253.2890625 C229.643249 247.08228936 236.64064466 230.51631078 239.9375 218.9375 C240.31605293 217.29710399 240.67415941 215.6516747 241 214 C241.3403125 212.3603125 241.3403125 212.3603125 241.6875 210.6875 C243.4081553 190.38376752 239.26075051 171.08668167 225.921875 155.18359375 C221.65803578 150.37893669 217.21527747 145.7855721 212 142 C211.34 142 210.68 142 210 142 C210 141.34 210 140.68 210 140 C207.36 138.68 204.72 137.36 202 136 Z " fill="#0259FB" transform="translate(123,102)"/>
<path d="M0 0 C17.58621211 -0.09379749 35.1723452 -0.16415154 52.75875092 -0.20724869 C60.92600408 -0.22779896 69.09310105 -0.25577373 77.26025391 -0.30175781 C84.38586018 -0.34185818 91.51135323 -0.36748744 98.63706923 -0.37635398 C102.40368147 -0.38152987 106.16997005 -0.39353375 109.93647766 -0.42292023 C140.15250899 -0.64953948 140.15250899 -0.64953948 153 4 C153.88601395 4.31973282 154.77202789 4.63946564 155.68489075 4.96888733 C157.74832042 5.75996461 159.70732249 6.64561491 161.6875 7.625 C162.3882666 7.96490967 163.0890332 8.30481934 163.81103516 8.6550293 C184.96482332 19.3329995 201.85747955 38.72275023 209.72460938 61.05712891 C212.78193069 70.80998392 214.19859305 80.49520173 214.1875 90.6875 C214.18669434 91.46770508 214.18588867 92.24791016 214.18505859 93.05175781 C214.09123573 102.02563899 212.98836344 110.51204334 210 119 C210.72960937 119.2784375 211.45921875 119.556875 212.2109375 119.84375 C231.9065858 128.00889271 245.43863231 146.07979301 254 165 C255.62176729 168.94823107 256.92516969 172.8703888 258 177 C258.33644531 178.28777344 258.33644531 178.28777344 258.6796875 179.6015625 C263.9672413 204.73555109 258.85140916 231.49386472 245 253 C232.07840974 271.98233616 213.48331589 285.51927907 191 291 C179.39962234 292.84983125 167.93070306 293.28671729 156.20507812 293.24291992 C154.49978055 293.24399634 152.79448335 293.24594032 151.08918762 293.24867249 C146.51792168 293.25346075 141.94675551 293.24594594 137.37550163 293.23571944 C132.57540904 293.22685813 127.77531883 293.22869781 122.97521973 293.2290802 C114.93642529 293.22814842 106.89766899 293.21952287 98.85888672 293.20581055 C89.55806863 293.19000445 80.25729197 293.18481563 70.95646143 293.1855461 C61.03678042 293.18621995 51.11711539 293.17929787 41.19743919 293.1700995 C38.33996393 293.16796592 35.48249124 293.16725807 32.62501526 293.16686058 C28.1531846 293.16586015 23.68138903 293.15978837 19.20956993 293.14969444 C17.56516929 293.14676242 15.92076462 293.14554548 14.27636147 293.14612198 C12.04207256 293.14660912 9.80788346 293.14099275 7.5736084 293.13371277 C6.32084862 293.13203692 5.06808884 293.13036108 3.77736664 293.12863445 C1 293 1 293 0 292 C-0.09611419 290.3424238 -0.12187755 288.68073014 -0.12025452 287.02037048 C-0.12231651 285.40279091 -0.12231651 285.40279091 -0.12442017 283.75253296 C-0.12082489 282.5592337 -0.11722961 281.36593445 -0.11352539 280.13647461 C-0.11367142 278.88787155 -0.11381744 277.63926849 -0.1139679 276.35282898 C-0.11338891 272.91909006 -0.10835955 269.48541062 -0.10139394 266.05168223 C-0.09515998 262.46687541 -0.09455657 258.88206787 -0.09336853 255.29725647 C-0.09025534 248.50449955 -0.08204212 241.71175865 -0.07201904 234.91900879 C-0.06085753 227.18757506 -0.05534736 219.45614058 -0.05032361 211.72470081 C-0.03985949 195.81645792 -0.02226029 179.90823102 0 164 C0.66223383 163.99761165 1.32446766 163.99522329 2.00676918 163.99276257 C18.17644445 163.93343251 34.34595439 163.85776873 50.51546669 163.76428509 C58.33516714 163.71946295 66.15482342 163.68001763 73.97460938 163.65356445 C80.79630548 163.63047366 87.61786022 163.59695382 94.43944395 163.55129844 C98.04602116 163.52751432 101.65245967 163.50868922 105.25911331 163.50238609 C109.30136002 163.49512514 113.34312871 163.46456335 117.38525391 163.43237305 C119.14717323 163.43452568 119.14717323 163.43452568 120.94468689 163.4367218 C140.17661934 163.22171252 159.21098228 156.9006773 173.48828125 143.69921875 C176.61329805 140.29171456 179.17263886 136.76922689 181.60913086 132.84790039 C182.28159096 131.76708946 182.28159096 131.76708946 182.96763611 130.66444397 C183.30831619 130.11517746 183.64899628 129.56591095 184 129 C183.05778878 129.00092179 182.11557756 129.00184359 181.14481449 129.00279331 C158.25357895 129.02496041 135.3623448 129.04141031 112.47110081 129.05181217 C101.40122154 129.05697571 90.33134934 129.0640195 79.26147461 129.07543945 C69.61668946 129.08538454 59.97190943 129.09185301 50.32711929 129.09408849 C45.21693439 129.0953959 40.10676415 129.09848364 34.99658394 129.10573006 C30.19257441 129.1124875 25.38858567 129.11461753 20.58457184 129.11310768 C18.81601537 129.11338413 17.04745825 129.11539088 15.27890587 129.11920547 C12.87512527 129.12413843 10.47142443 129.12299978 8.06764221 129.12025452 C7.00394617 129.12462378 7.00394617 129.12462378 5.91876131 129.12908131 C1.11412121 129.11412121 1.11412121 129.11412121 0 128 C-0.09611419 126.3424238 -0.12187755 124.68073014 -0.12025452 123.02037048 C-0.12231651 121.40279091 -0.12231651 121.40279091 -0.12442017 119.75253296 C-0.12082489 118.5592337 -0.11722961 117.36593445 -0.11352539 116.13647461 C-0.11367142 114.88787155 -0.11381744 113.63926849 -0.1139679 112.35282898 C-0.11338891 108.91909006 -0.10835955 105.48541062 -0.10139394 102.05168223 C-0.09515998 98.46687541 -0.09455657 94.88206787 -0.09336853 91.29725647 C-0.09025534 84.50449955 -0.08204212 77.71175865 -0.07201904 70.91900879 C-0.06085753 63.18757506 -0.05534736 55.45614058 -0.05032361 47.72470081 C-0.03985949 31.81645792 -0.02226029 15.90823102 0 0 Z M2 2 C2 43.25 2 84.5 2 127 C93.08 127.495 93.08 127.495 186 128 C183.6269168 133.53719414 182.51027327 136.01832475 178.6875 140.125 C177.89859375 140.97320312 177.1096875 141.82140625 176.296875 142.6953125 C174.40781414 144.59079874 172.51912283 146.32478924 170.4375 148 C169.633125 148.66 168.82875 149.32 168 150 C168 150.66 168 151.32 168 152 C167.31164062 152.25910156 166.62328125 152.51820313 165.9140625 152.78515625 C162.62414496 154.15669024 159.5309353 155.78116827 156.375 157.4375 C144.00255049 163.76304313 132.09434937 165.13841117 118.36352539 165.20532227 C117.1042926 165.21522186 115.84505981 165.22512146 114.54766846 165.23532104 C111.11226202 165.26222231 107.67684206 165.2833113 104.24138951 165.30332303 C100.64457981 165.32527439 97.0478111 165.35261807 93.45103455 165.37937927 C86.64788284 165.42918298 79.84470823 165.47416723 73.04151195 165.51740164 C65.29298148 165.5668797 57.54449216 165.62175844 49.79600155 165.67708123 C33.86403912 165.79071198 17.93203876 165.89759177 2 166 C1.97667091 182.1503192 1.95902078 198.30063296 1.94818783 214.45096493 C1.94302489 221.94933064 1.93598224 229.44768591 1.92456055 236.94604492 C1.91461363 243.47930504 1.90814656 250.01255759 1.90591151 256.54582506 C1.90460441 260.00721807 1.90151864 263.46858942 1.89426994 266.92997551 C1.88625593 270.78787527 1.88600887 274.64575357 1.88647461 278.50366211 C1.88287933 279.65955841 1.87928406 280.81545471 1.87557983 282.00637817 C1.8769545 283.05110794 1.87832916 284.09583771 1.87974548 285.17222595 C1.87882369 286.0857228 1.8779019 286.99921965 1.87695217 287.94039822 C1.77089742 289.99212355 1.77089742 289.99212355 3 291 C5.19604382 291.10140438 7.39541393 291.13078106 9.59379578 291.13371277 C10.29122684 291.13597833 10.9886579 291.13824388 11.70722324 291.14057809 C14.06223757 291.14694668 16.41719477 291.14608686 18.7722168 291.14526367 C20.45406164 291.14825371 22.13590579 291.15165587 23.81774902 291.15544128 C28.40319798 291.16430928 32.9886283 291.16662079 37.574085 291.16725707 C40.44180035 291.16796691 43.30951094 291.17010015 46.17722511 291.17275429 C56.19147671 291.18202253 66.20571496 291.18608803 76.2199707 291.18530273 C85.53497991 291.1847041 94.8499308 291.19520992 104.16492528 291.2110464 C112.17019633 291.22416792 120.17544846 291.22948458 128.18073016 291.22884732 C132.9576575 291.22859335 137.73453324 291.23138787 142.51144981 291.24202538 C147.01677735 291.25178207 151.52200484 291.25173419 156.02733612 291.24450874 C157.67110403 291.24347168 159.3148784 291.24577283 160.95863533 291.2518692 C186.08123535 291.33891786 208.79084446 286.09262087 228 269 C228.4935498 268.56091309 228.98709961 268.12182617 229.49560547 267.66943359 C247.61232919 251.28329507 257.93268473 229.22570832 259.28125 204.77734375 C259.76411224 190.05761654 256.95590283 176.4988017 251 163 C250.68160156 162.26394531 250.36320313 161.52789062 250.03515625 160.76953125 C242.0549134 143.61029662 227.56584125 129.78445527 211 121 C210.01 120.67 209.02 120.34 208 120 C208.12117187 119.45698242 208.24234375 118.91396484 208.3671875 118.35449219 C211.42519615 104.4581952 212.75836802 92.19254191 211 78 C210.34 78 209.68 78 209 78 C209.22042969 77.19304687 209.44085938 76.38609375 209.66796875 75.5546875 C210.10576395 70.86770355 208.87966382 67.50136889 207.3125 63.125 C207.05533203 62.36058594 206.79816406 61.59617188 206.53320312 60.80859375 C201.06752871 44.98902506 190.5867365 29.94151451 177 20 C176.34 20 175.68 20 175 20 C174.73509766 19.13375 174.73509766 19.13375 174.46484375 18.25 C172.28363316 14.89966054 169.07317315 13.65761681 165.5625 12 C164.8411084 11.65114746 164.1197168 11.30229492 163.37646484 10.94287109 C149.77040258 4.46249541 137.64865713 1.68382585 122.56396484 1.77294922 C121.25552612 1.77265717 119.9470874 1.77236511 118.59899902 1.77206421 C115.04179713 1.77149472 111.48473248 1.7831829 107.92756224 1.79721212 C104.19867381 1.80978748 100.4697816 1.81089531 96.74087524 1.81326294 C89.69340072 1.81945784 82.64598888 1.83584147 75.59854186 1.85596192 C66.06562381 1.88258262 56.5326884 1.89330966 46.99974251 1.90496635 C31.99978146 1.92372369 16.99995265 1.96358253 2 2 Z " fill="#0E5CDE" transform="translate(123,102)"/>
<path d="M0 0 C7.96806114 0.78118246 11.51931993 3.39186225 17 9 C18.26670552 10.06741779 19.53791922 11.12949837 20.8125 12.1875 C32.48687785 22.41355278 39.80183224 35.87020634 43 51 C43.18304688 51.7528125 43.36609375 52.505625 43.5546875 53.28125 C46.58666531 71.79227241 42.36648289 91.77692897 31.97265625 107.3125 C23.32113269 119.09913011 12.92977904 129.96606606 -1 135 C-2.02738281 135.37898437 -3.05476562 135.75796875 -4.11328125 136.1484375 C-11.81577274 138.85342206 -18.87443921 140.126533 -27.06785583 140.12025452 C-28.08138118 140.12153615 -28.08138118 140.12153615 -29.11538178 140.12284368 C-31.36007065 140.12447954 -33.60468335 140.11900841 -35.84936523 140.11352539 C-37.46614073 140.11324308 -39.08291635 140.1134021 -40.69969177 140.1139679 C-45.07518207 140.11425417 -49.45064481 140.10838488 -53.82612872 140.10139394 C-58.40386486 140.09513214 -62.98160167 140.09455436 -67.55934143 140.09336853 C-76.22185999 140.09026355 -84.88436589 140.08206138 -93.54687887 140.07201904 C-103.41142253 140.06083204 -113.27596679 140.05534093 -123.14051521 140.05032361 C-143.4270172 140.03987807 -163.7135078 140.02229476 -184 140 C-184.02312178 127.89158056 -184.04091424 115.78316633 -184.05181217 103.67472935 C-184.05704136 98.05292038 -184.06413966 92.43112647 -184.07543945 86.80932617 C-184.08626706 81.38881723 -184.09227656 75.9683228 -184.09487724 70.54780388 C-184.09673172 68.47485055 -184.10035277 66.40189806 -184.10573006 64.32895088 C-184.1129388 61.43616107 -184.11399101 58.54343204 -184.11352539 55.65063477 C-184.11712067 54.78461136 -184.12071594 53.91858795 -184.12442017 53.02632141 C-184.11405216 47.11405216 -184.11405216 47.11405216 -183 46 C-181.57917632 45.89669352 -180.15328731 45.86205724 -178.72872925 45.85523987 C-177.80664673 45.84834137 -176.88456421 45.84144287 -175.93453979 45.83433533 C-174.40435715 45.83041527 -174.40435715 45.83041527 -172.84326172 45.82641602 C-171.24058441 45.8163855 -171.24058441 45.8163855 -169.60552979 45.80615234 C-167.27396683 45.79205827 -164.94238973 45.78017827 -162.61080551 45.77020454 C-158.91001107 45.75381913 -155.20931923 45.73057543 -151.50857544 45.70530701 C-140.98184049 45.63451137 -130.45506738 45.57475739 -119.92822266 45.52319336 C-113.49494859 45.49119715 -107.06178702 45.44985484 -100.62860489 45.40299797 C-98.18486711 45.38708146 -95.74110335 45.37471276 -93.29732895 45.36609077 C-63.37582053 45.25912011 -36.37926524 41.70499756 -14 20 C-8.32509659 13.88457897 -3.68068672 7.49084484 0 0 Z M2 1 C1.50693359 1.89138672 1.50693359 1.89138672 1.00390625 2.80078125 C-11.07885305 23.85556237 -28.35354004 36.45118001 -50.9765625 43.9921875 C-65.11328457 47.77720243 -79.46931494 47.34551144 -93.98828125 47.4140625 C-96.50319538 47.43279754 -99.01810338 47.45237265 -101.53300476 47.4727478 C-107.44346727 47.5186259 -113.35393501 47.55612144 -119.26448077 47.58942068 C-127.85118952 47.6384061 -136.43776889 47.70465575 -145.02437592 47.76873779 C-157.01621014 47.85665593 -169.00802822 47.92663099 -181 48 C-181 78.03 -181 108.06 -181 139 C-153.66407544 139.08748733 -153.66407544 139.08748733 -126.328125 139.14648438 C-115.17118159 139.16424463 -104.01430644 139.18505664 -92.85742188 139.22631836 C-84.72979966 139.25636239 -76.60223313 139.27560837 -68.47455692 139.28226548 C-64.17704936 139.28615251 -59.87970104 139.29518981 -55.58224487 139.31719017 C-51.52422092 139.33779335 -47.46641938 139.34378656 -43.40834808 139.33932304 C-41.93150365 139.34013773 -40.45465053 139.34595984 -38.97785187 139.35761642 C-20.33143149 139.49737818 -3.25651811 136.3022777 12 125 C13.010625 124.2575 14.02125 123.515 15.0625 122.75 C15.701875 122.1725 16.34125 121.595 17 121 C17 120.34 17 119.68 17 119 C17.57234375 118.76539063 18.1446875 118.53078125 18.734375 118.2890625 C29.643249 112.08228936 36.64064466 95.51631078 39.9375 83.9375 C40.31605293 82.29710399 40.67415941 80.6516747 41 79 C41.3403125 77.3603125 41.3403125 77.3603125 41.6875 75.6875 C43.4081553 55.38376752 39.26075051 36.08668167 25.921875 20.18359375 C21.65803578 15.37893669 17.21527747 10.7855721 12 7 C11.34 7 10.68 7 10 7 C10 6.34 10 5.68 10 5 C7.36 3.68 4.72 2.36 2 1 Z " fill="#1365D8" transform="translate(323,237)"/>
<path d="M0 0 C20.18390253 0.82383276 38.29293672 9.33189723 53 23 C53.87269531 23.804375 54.74539063 24.60875 55.64453125 25.4375 C72.27642126 41.39613509 82.52890433 63.09234625 83.16796875 86.26171875 C83.18281976 87.73691878 83.18910565 89.21222609 83.1875 90.6875 C83.18669434 91.46770508 83.18588867 92.24791016 83.18505859 93.05175781 C83.09123573 102.02563899 81.98836344 110.51204334 79 119 C79.72960937 119.2784375 80.45921875 119.556875 81.2109375 119.84375 C100.9065858 128.00889271 114.43863231 146.07979301 123 165 C124.62176729 168.94823107 125.92516969 172.8703888 127 177 C127.33644531 178.28777344 127.33644531 178.28777344 127.6796875 179.6015625 C132.9672413 204.73555109 127.85140916 231.49386472 114 253 C101.07820046 271.98264359 82.48340387 285.51873833 60 291 C48.39259057 292.85299032 36.92194461 293.28262472 25.18920898 293.22705078 C23.4822897 293.2264848 21.77536993 293.22680687 20.06845093 293.22793579 C15.49311317 293.22850301 10.91788309 293.21685255 6.34257007 293.20278788 C1.53934465 293.19017371 -3.26388399 293.18910168 -8.06712341 293.18673706 C-17.13660996 293.18055338 -26.20604753 293.16418527 -35.27551264 293.14403808 C-45.61185809 293.12158146 -55.94820604 293.11066125 -66.28456986 293.10064721 C-87.52307377 293.07981582 -108.76153378 293.04470123 -130 293 C-126.33489805 290.5565987 -124.57488918 290.74526349 -120.20365906 290.73498535 C-119.5086027 290.73060408 -118.81354634 290.72622281 -118.09742767 290.72170877 C-115.76239655 290.70936254 -113.42758933 290.71119871 -111.0925293 290.71289062 C-109.42023891 290.70686753 -107.74795157 290.69994357 -106.07566833 290.69218445 C-102.46944475 290.67727626 -98.86327671 290.6685412 -95.25702477 290.66447449 C-89.54424388 290.65776044 -83.83158123 290.63600088 -78.11885071 290.61193848 C-65.97509489 290.56292282 -53.83131382 290.53069092 -41.6875 290.5 C-28.61459323 290.46688555 -15.54173257 290.43073427 -2.46889621 290.37586927 C3.19810046 290.35264813 8.86501602 290.33881102 14.5320555 290.33237457 C18.0781778 290.32638905 21.6242355 290.31225126 25.17032433 290.29603004 C26.80118332 290.29020806 28.4320583 290.28767043 30.06292725 290.28886986 C59.67570417 290.30442381 83.33333072 282.12939827 104.54589844 260.95703125 C120.23515207 244.51396979 127.57669962 220.77892656 127.35375977 198.36450195 C126.95260223 185.90863187 124.03491246 174.41141601 119 163 C118.68160156 162.26394531 118.36320313 161.52789062 118.03515625 160.76953125 C109.42110645 142.24747566 93.96279314 129.0167564 76 120 C76.433125 118.21722656 76.433125 118.21722656 76.875 116.3984375 C79.83424179 103.45900772 80.49387673 91.24349457 80 78 C79.34 78 78.68 78 78 78 C77.938125 76.824375 77.87625 75.64875 77.8125 74.4375 C76.14288738 59.36328324 68.70655793 43.70655793 58 33 C57.12396136 31.91750639 56.24909038 30.8340674 55.375 29.75 C52.58219339 26.45872179 49.56928813 24.00290263 46.02734375 21.5546875 C44 20 44 20 41.7734375 17.57421875 C38.35239852 14.39891637 34.94170398 12.76476023 30.6875 10.9375 C29.90584473 10.59460938 29.12418945 10.25171875 28.31884766 9.8984375 C20.74798453 6.69016036 13.03429281 4.66377726 5 3 C5 2.34 5 1.68 5 1 C3.35 1 1.7 1 0 1 C0 0.67 0 0.34 0 0 Z " fill="#1167DE" transform="translate(254,102)"/>
<path d="M0 0 C0.33 0 0.66 0 1 0 C1 29.7 1 59.4 1 90 C1.99 89.505 1.99 89.505 3 89 C5.03365225 88.90161491 7.07059991 88.8692862 9.10662842 88.86628723 C10.41016769 88.86202225 11.71370697 88.85775726 13.05674744 88.85336304 C14.51016238 88.8537126 15.96357731 88.85417416 17.41699219 88.85473633 C18.94135114 88.85174534 20.46570934 88.84834295 21.99006653 88.84455872 C26.14158619 88.83570053 30.29308526 88.83337962 34.44461346 88.83274293 C37.04214124 88.83203254 39.63966377 88.82989827 42.23719025 88.82724571 C51.31128776 88.81798076 60.38537057 88.81391157 69.45947266 88.81469727 C77.8946156 88.81529584 86.32969414 88.80479049 94.76482081 88.7889536 C102.01852617 88.77582434 109.27221065 88.77051574 116.52592778 88.77115268 C120.85235811 88.77140642 125.17873142 88.76862475 129.50514984 88.75797462 C133.58615283 88.74820475 137.66704543 88.74827455 141.7480526 88.75549126 C143.23540345 88.75652671 144.72276149 88.75423707 146.21010017 88.7481308 C155.66059697 88.71188853 164.67908169 89.4013607 174 91 C178.18126225 72.79869601 176.79135981 54.66995549 168 38 C167.50757813 37.02289063 167.01515625 36.04578125 166.5078125 35.0390625 C162.14037352 26.91019281 156.70096497 21.22080028 150 15 C148.99464393 14.00538491 147.99170167 13.00823003 147 12 C156.71937646 14.55098004 163.17458939 23.2626121 168.375 31.4375 C175.44773056 43.65535218 179.3969871 55.13403543 179.25 69.25 C179.24540771 70.16297852 179.24081543 71.07595703 179.23608398 72.01660156 C178.98271922 91.01728078 178.98271922 91.01728078 176 94 C174.65109695 93.90997648 173.30658949 93.75429342 171.96658325 93.57533264 C164.50452595 92.75374413 157.03160363 92.82254558 149.53466797 92.79467773 C147.88789127 92.7850824 146.24111695 92.77507139 144.59434509 92.76467896 C140.15087942 92.73780302 135.70740331 92.7167005 131.26390219 92.69667697 C126.61008937 92.67470975 121.95630807 92.64737392 117.30252075 92.62062073 C108.50200321 92.57083825 99.70146804 92.52584623 90.90091622 92.48259836 C80.87667041 92.43310202 70.85245625 92.37823012 60.82824111 92.32291877 C40.21885693 92.20932067 19.6094425 92.10243392 -1 92 C-2.61213433 88.77573135 -2.08713036 85.26476337 -2.03759766 81.7265625 C-2.02959641 80.87116882 -2.02159515 80.01577515 -2.01335144 79.13446045 C-1.98539848 76.29789355 -1.9499487 73.46147684 -1.9140625 70.625 C-1.89230236 68.65967134 -1.87085245 66.69433921 -1.84970093 64.72900391 C-1.80415751 60.60639912 -1.75492864 56.48385886 -1.703125 52.36132812 C-1.63689562 47.06826799 -1.57962847 41.77515613 -1.52509499 36.48196411 C-1.48231488 32.42256272 -1.43487313 28.36322622 -1.38599777 24.30389404 C-1.36304686 22.35180279 -1.34154392 20.39969398 -1.32149124 18.4475708 C-1.29278702 15.72277708 -1.25784127 12.99813434 -1.22119141 10.2734375 C-1.2138649 9.46090515 -1.20653839 8.6483728 -1.19898987 7.81121826 C-1.11427393 2.22854785 -1.11427393 2.22854785 0 0 Z " fill="#116ADD" transform="translate(141,122)"/>
<path d="M0 0 C0 4.02930477 -1.31856305 5.03376991 -4 8 C-26.30061876 28.1609648 -51.54062415 33.36569351 -80.81079102 33.22705078 C-82.5177103 33.2264848 -84.22463007 33.22680687 -85.93154907 33.22793579 C-90.50688683 33.22850301 -95.08211691 33.21685255 -99.65742993 33.20278788 C-104.46065535 33.19017371 -109.26388399 33.18910168 -114.06712341 33.18673706 C-123.13660996 33.18055338 -132.20604753 33.16418527 -141.27551264 33.14403808 C-151.61185809 33.12158146 -161.94820604 33.11066125 -172.28456986 33.10064721 C-193.52307377 33.07981582 -214.76153378 33.04470123 -236 33 C-232.33489805 30.5565987 -230.57488918 30.74526349 -226.20365906 30.73498535 C-225.16107452 30.72841345 -225.16107452 30.72841345 -224.09742767 30.72170877 C-221.76239655 30.70936254 -219.42758933 30.71119871 -217.0925293 30.71289062 C-215.42023891 30.70686753 -213.74795157 30.69994357 -212.07566833 30.69218445 C-208.46944475 30.67727626 -204.86327671 30.6685412 -201.25702477 30.66447449 C-195.54424388 30.65776044 -189.83158123 30.63600088 -184.11885071 30.61193848 C-171.97509489 30.56292282 -159.83131382 30.53069092 -147.6875 30.5 C-134.61459323 30.46688555 -121.54173257 30.43073427 -108.46889621 30.37586927 C-102.80189954 30.35264813 -97.13498398 30.33881102 -91.4679445 30.33237457 C-87.9218222 30.32638905 -84.3757645 30.31225126 -80.82967567 30.29603004 C-79.19881668 30.29020806 -77.5679417 30.28767043 -75.93707275 30.28886986 C-44.79108302 30.30522912 -22.92707552 20.8674328 0 0 Z " fill="#1E62C6" transform="translate(360,362)"/>
<path d="M0 0 C4.95 0 9.9 0 15 0 C15 0.33 15 0.66 15 1 C8.565 1.495 8.565 1.495 2 2 C2.10735119 18.13309554 2.21988827 34.26614267 2.33933926 50.39915276 C2.39466845 57.889621 2.44814994 65.38009401 2.49731445 72.87060547 C2.54016002 79.39767888 2.58643895 85.92471726 2.63687855 92.45173657 C2.6634765 95.90922835 2.68832949 99.36671319 2.70907402 102.82424545 C2.73226957 106.67958967 2.76312886 110.53485134 2.79467773 114.39013672 C2.8004332 115.54243774 2.80618866 116.69473877 2.81211853 117.88195801 C2.82190735 118.92806244 2.83169617 119.97416687 2.84178162 121.05197144 C2.84823417 121.96454649 2.85468672 122.87712154 2.8613348 123.81735039 C2.86061577 126.04590202 2.86061577 126.04590202 4 128 C2.68 128 1.36 128 0 128 C0 85.76 0 43.52 0 0 Z " fill="#125FDA" transform="translate(123,266)"/>
<path d="M0 0 C14.20404913 -0.02340008 28.40809525 -0.04094748 42.61215973 -0.05181217 C49.20791798 -0.0570271 55.80366327 -0.06409953 62.39941406 -0.07543945 C68.76659777 -0.0863177 75.13376902 -0.09228732 81.5009613 -0.09487724 C83.92817887 -0.09672258 86.35539578 -0.10032606 88.78260803 -0.10573006 C92.18646713 -0.11300597 95.59027498 -0.11398817 98.99414062 -0.11352539 C99.99395966 -0.11712067 100.99377869 -0.12071594 102.02389526 -0.12442017 C109.00112352 -0.11417907 115.91214513 0.02781593 122.5625 2.375 C123.305 2.63667969 124.0475 2.89835937 124.8125 3.16796875 C127.92191616 4.3506574 130.96265813 5.6428898 134 7 C134 7.66 134 8.32 134 9 C132.7625 8.566875 131.525 8.13375 130.25 7.6875 C120.49155526 4.47185399 111.46926957 2.55318064 101.17285156 2.56762695 C99.50236252 2.55233948 99.50236252 2.55233948 97.79812622 2.53674316 C94.16223976 2.50684624 90.52661773 2.49738289 86.890625 2.48828125 C84.35185893 2.47141731 81.81310113 2.45326478 79.27435303 2.43388367 C73.30364439 2.39138567 67.33296223 2.36176349 61.36215568 2.33856028 C54.55660697 2.31138113 47.75119695 2.26747832 40.94574785 2.22227156 C26.96390753 2.1297634 12.98202335 2.05792905 -1 2 C-0.67 1.34 -0.34 0.68 0 0 Z " fill="#0F59D8" transform="translate(143,119)"/>
<path d="M0 0 C0.99 0.33 1.98 0.66 3 1 C0.38303096 4.10707278 -2.62349331 5.39572076 -6.3125 7 C-7.42238281 7.495 -8.53226563 7.99 -9.67578125 8.5 C-20.93214747 12.73634314 -32.2084566 13.43266969 -44.09326172 13.34057617 C-45.65195703 13.33972755 -47.21065353 13.34020961 -48.76934814 13.34190369 C-52.95444421 13.34275591 -57.13927639 13.32525715 -61.32431173 13.30418181 C-65.71514603 13.28528446 -70.105988 13.28365437 -74.49685669 13.28010559 C-82.79086762 13.27082316 -91.08475833 13.24626149 -99.37871659 13.21605712 C-108.82987222 13.18239395 -118.28103394 13.16599729 -127.73223472 13.15097082 C-147.15489102 13.11970805 -166.5774358 13.06702244 -186 13 C-186 12.67 -186 12.34 -186 12 C-184.83934147 11.99641747 -184.83934147 11.99641747 -183.65523529 11.99276257 C-164.76434357 11.93343905 -145.87358057 11.8577792 -126.98282623 11.76428509 C-117.84712381 11.71945822 -108.71145923 11.68001389 -99.57568359 11.65356445 C-91.60620263 11.6304776 -83.63684277 11.59696192 -75.66745806 11.55129844 C-71.45383994 11.52750923 -67.24034067 11.50868736 -63.0266571 11.50238609 C-59.04734709 11.4962697 -55.06834062 11.47603884 -51.08914375 11.44572449 C-49.64135929 11.43704782 -48.19353498 11.43319967 -46.74572563 11.43499184 C-31.46785555 11.44791346 -15.47912428 9.81065684 -2.35546875 1.28125 C-1.57816406 0.8584375 -0.80085937 0.435625 0 0 Z " fill="#0F5EDD" transform="translate(331,364)"/>
<path d="M0 0 C0 4.02930477 -1.31856305 5.03376991 -4 8 C-18.67211512 21.26438515 -36.93530974 31.21005156 -57 32 C-57 31.34 -57 30.68 -57 30 C-55.91203125 29.76925781 -54.8240625 29.53851563 -53.703125 29.30078125 C-32.01586847 24.55181927 -16.31578649 14.85006571 0 0 Z " fill="#1868D3" transform="translate(360,362)"/>
<path d="M0 0 C0.99 0.33 1.98 0.66 3 1 C2.67657623 1.48402283 2.35315247 1.96804565 2.01992798 2.46673584 C0.55528371 6.10457195 0.69147645 9.66826897 0.68115234 13.53222656 C0.67110672 14.39112488 0.6610611 15.25002319 0.65071106 16.13494873 C0.61985289 18.97016743 0.60283657 21.80529158 0.5859375 24.640625 C0.56722798 26.6078981 0.54765472 28.57516316 0.5272522 30.54241943 C0.47590226 35.71760316 0.43629179 40.89281291 0.39910889 46.06811523 C0.35908723 51.3501633 0.30798649 56.63210284 0.2578125 61.9140625 C0.1610193 72.27596546 0.07662531 82.63792966 0 93 C-0.33 93 -0.66 93 -1 93 C-1.02313347 81.169619 -1.04092023 69.33924335 -1.05181217 57.50884438 C-1.05703879 52.01597929 -1.06413246 46.52312964 -1.07543945 41.03027344 C-1.08627614 35.73295311 -1.09227851 30.43564766 -1.09487724 25.13831711 C-1.09673007 23.11363872 -1.10034799 21.08896118 -1.10573006 19.06428909 C-1.11295083 16.23636339 -1.1139905 13.40849979 -1.11352539 10.58056641 C-1.11712067 9.73683975 -1.12071594 8.8931131 -1.12442017 8.02381897 C-1.11405216 2.22810432 -1.11405216 2.22810432 0 0 Z " fill="#0958EB" transform="translate(140,119)"/>
<path d="M0 0 C11.13361953 2.922167 17.8778858 13.63949904 23.44140625 23.0546875 C24.82221444 25.6640343 25.97454478 28.23484213 27 31 C26.01 31.33 25.02 31.66 24 32 C23.64808594 31.23816406 23.29617188 30.47632813 22.93359375 29.69140625 C17.83706005 19.03259817 11.47476363 11.14314245 3 3 C1.99774522 2.00225988 0.99691836 1.00307217 0 0 Z " fill="#155FD3" transform="translate(288,134)"/>
<path d="M0 0 C0 3 0 3 -2.265625 5.375 C-3.25046875 6.24125 -4.2353125 7.1075 -5.25 8 C-6.22453125 8.86625 -7.1990625 9.7325 -8.203125 10.625 C-14.53289474 16 -14.53289474 16 -17 16 C-15.45635766 12.01377066 -12.93174833 10.05718936 -9.625 7.4375 C-8.66851562 6.67308594 -7.71203125 5.90867187 -6.7265625 5.12109375 C-4.50104302 3.38977988 -2.2646037 1.67967051 0 0 Z " fill="#186FD5" transform="translate(313,254)"/>
<path d="M0 0 C2 1.0625 2 1.0625 4 3 C4.50958055 7.671155 4.13072579 9.73854842 2 14 C2 10.7 2 7.4 2 4 C1.34 4 0.68 4 0 4 C0 2.68 0 1.36 0 0 Z " fill="#0C5EE5" transform="translate(332,176)"/>
<path d="M0 0 C3.5786304 1.65167557 6.74820188 3.78286492 10 6 C9.01 7.485 9.01 7.485 8 9 C1.42857143 3.85714286 1.42857143 3.85714286 0 0 Z " fill="#136BD5" transform="translate(342,226)"/>
<path d="M0 0 C0.33 0 0.66 0 1 0 C1.08114106 1.77007714 1.13925505 3.54122098 1.1875 5.3125 C1.23970703 6.79169922 1.23970703 6.79169922 1.29296875 8.30078125 C1 11 1 11 -0.51171875 12.85546875 C-1.00285156 13.23316406 -1.49398438 13.61085937 -2 14 C-1.43393721 9.30976546 -0.81462495 4.65499974 0 0 Z " fill="#0E62E4" transform="translate(335,196)"/>
<path d="M0 0 C6.75 0.875 6.75 0.875 9 2 C8.67 2.99 8.34 3.98 8 5 C6.576875 4.2575 6.576875 4.2575 5.125 3.5 C2.27721834 1.85575631 2.27721834 1.85575631 0 2 C0 1.34 0 0.68 0 0 Z " fill="#0B5BE4" transform="translate(323,237)"/>
<path d="M0 0 C0.66 1.32 1.32 2.64 2 4 C2.66 4 3.32 4 4 4 C4 5.65 4 7.3 4 9 C3.01 9.495 3.01 9.495 2 10 C1.34 6.7 0.68 3.4 0 0 Z " fill="#1B6BD3" transform="translate(361,279)"/>
<path d="M0 0 C4.1424367 1.38081223 5.32203099 3.59825558 8 7 C4.21388773 6.45912682 2.44599233 4.88277668 0 2 C0 1.34 0 0.68 0 0 Z " fill="#125ED4" transform="translate(332,240)"/>
</svg>
